:SAMPLES-PER-SECOND 30
:FRAME-RANGE 1-4244
:FULLY-SPECIFIED
:DEGREES
3316
root  -52.7819 18.7759 16.3787 73.361 81.7109 32.3228
RightUpLeg  -51.0129 -0.505357 -5.01375
RightLeg  125.702 -1.72221 2.86048
RightFoot  -50.9649 8.05588 23.1003
RightToes  -3.31784e-009 0 -3.6325e-017
Spine  43.7675 -0.499045 -2.05603
Spine1  -10.4784 -1.27769 -0.7671
HEad  -57.4432 24.0762 -25.5147
LeftShoulder1  2.00172 -7.64964 -10.7117
LeftArm  -23.2624 -78.0053 -41.064
LeftForeArm  28.6293 7.94856 -13.8909
LeftHand  -0.0763402 4.90104 15.3719
RightShoulder  12.386 45.2982 17.9255
RightArm  -29.7304 41.0703 18.9785
RightForeArm  19.3433 -7.35592 8.88309
RightHand  -1.57173 0.0202781 -33.0573
LeftUpLeg  -46.3262 -2.30549 4.03891
LeftLeg  115.916 6.67537 -12.9646
LeftFoot  -36.7754 -3.4499 -16.1816
LeftToes  1.0277e-010 -6.71454e-011 3.04227e-011
3317
root  -52.5386 18.8183 16.3202 71.764 81.7922 30.0622
RightUpLeg  -51.0743 -0.537966 -4.78174
RightLeg  124.972 -1.35441 2.4402
RightFoot  -50.7629 8.06115 23.2354
RightToes  -3.31784e-009 0 -3.6325e-017
Spine  43.4779 -0.433959 -2.28467
Spine1  -10.3539 -1.32902 -0.366947
HEad  -57.8396 24.2697 -26.0812
LeftShoulder1  2.02443 -7.82278 -10.6295
LeftArm  -20.112 -78.2595 -42.8983
LeftForeArm  27.7518 7.80232 -14.5166
LeftHand  0.278916 7.14419 19.1373
RightShoulder  12.4892 45.2641 18.1689
RightArm  -29.3198 41.066 19.1676
RightForeArm  19.4684 -7.37576 9.0097
RightHand  -1.58192 0.0602267 -33.0297
LeftUpLeg  -46.2676 -2.20719 4.0231
LeftLeg  115.237 6.53854 -13.0761
LeftFoot  -36.7059 -3.40315 -16.0208
LeftToes  1.0277e-010 -6.71454e-011 3.04227e-011
3318
root  -52.2715 18.8622 16.264 70.0733 81.9218 27.673
RightUpLeg  -51.1181 -0.585878 -4.49633
RightLeg  124.161 -1.00788 2.02952
RightFoot  -50.4922 8.06848 23.4193
RightToes  -3.31784e-009 0 -3.6325e-017
Spine  43.2962 -0.427365 -2.41911
Spine1  -10.4482 -1.37967 -0.17458
HEad  -57.8694 24.372 -26.3378
LeftShoulder1  2.04026 -7.82261 -10.7852
LeftArm  -20.577 -77.7641 -43.0445
LeftForeArm  26.5765 7.88687 -14.3907
LeftHand  0.57534 8.56769 21.2247
RightShoulder  12.7638 45.2356 18.7786
RightArm  -29.3733 41.0845 19.3761
RightForeArm  20.2258 -7.35274 8.88921
RightHand  -1.59634 0.0890571 -33.1489
LeftUpLeg  -46.1754 -2.20621 4.07869
LeftLeg  114.485 6.39572 -13.2182
LeftFoot  -36.711 -3.41344 -16.0626
LeftToes  1.0277e-010 -6.71454e-011 3.04227e-011
3319
root  -52.0044 18.8887 16.2053 69.5242 81.8762 26.2305
RightUpLeg  -51.4026 -0.733032 -4.53396
RightLeg  123.488 -0.663387 1.58899
RightFoot  -50.1683 8.17896 23.9208
RightToes  -3.31784e-009 0 -3.6325e-017
Spine  42.8098 -0.415046 -2.30866
Spine1  -10.6798 -1.26849 -0.46474
HEad  -57.2375 24.2414 -26.2455
LeftShoulder1  1.97901 -7.42118 -10.8978
LeftArm  -17.7932 -77.5238 -45.3538
LeftForeArm  23.9273 7.83019 -14.768
LeftHand  0.526904 8.32144 21.1082
RightShoulder  13.0722 44.8993 19.6559
RightArm  -29.154 40.6236 19.4385
RightForeArm  20.6886 -7.34984 8.88639
RightHand  -1.57318 -0.0370573 -33.4212
LeftUpLeg  -46.308 -2.18309 3.9014
LeftLeg  113.712 6.24933 -13.3695
LeftFoot  -36.6524 -3.40445 -16.0596
LeftToes  1.0277e-010 -6.71454e-011 3.04227e-011
3320
root  -51.7313 18.931 16.1966 69.9189 82.0679 26.201
RightUpLeg  -51.0914 -0.94303 -4.3667
RightLeg  122.72 -0.843896 1.88542
RightFoot  -50.0834 7.99997 23.4828
RightToes  -3.31784e-009 0 -3.6325e-017
Spine  42.6998 -0.246612 -2.21742
Spine1  -10.9967 -1.03574 -0.638698
HEad  -56.3171 24.377 -26.1057
LeftShoulder1  1.96411 -7.31066 -10.9504
LeftArm  -11.8688 -77.7905 -48.9624
LeftForeArm  21.0714 7.41719 -15.6442
LeftHand  0.606905 8.69482 21.4887
RightShoulder  13.3648 44.3261 20.6651
RightArm  -28.5164 39.885 19.4797
RightForeArm  20.4268 -7.38656 9.10584
RightHand  -1.55916 -0.111781 -33.5826
LeftUpLeg  -45.9579 -2.44689 4.09229
LeftLeg  112.83 6.19359 -13.7746
LeftFoot  -36.5919 -3.39496 -16.0555
LeftToes  1.0277e-010 -6.71454e-011 3.04227e-011
3321
root  -51.4296 18.973 16.1748 70.6804 82.2137 26.2885
RightUpLeg  -51.1155 -1.21102 -4.1906
RightLeg  122.076 -0.250834 1.04693
RightFoot  -49.1945 8.13758 24.4297
RightToes  -3.31784e-009 0 -3.6325e-017
Spine  42.1634 -0.00361415 -2.23574
Spine1  -11.0709 -0.79165 -0.480207
HEad  -55.975 24.733 -26.4624
LeftShoulder1  1.92099 -7.27199 -10.5782
LeftArm  -7.39178 -77.8363 -53.5089
LeftForeArm  19.8068 7.27243 -15.8944
LeftHand  0.6453 8.84054 21.8356
RightShoulder  13.5308 43.8731 21.3341
RightArm  -28.8995 39.5337 19.5971
RightForeArm  21.279 -7.34495 8.87692
RightHand  -1.54155 -0.17479 -33.6029
LeftUpLeg  -45.8049 -2.7321 4.06584
LeftLeg  111.902 5.98705 -13.9142
LeftFoot  -36.2612 -3.21619 -15.4682
LeftToes  1.0277e-010 -6.71454e-011 3.04227e-011
3322
root  -51.1479 18.9863 16.1482 71.1651 82.2349 25.8805
RightUpLeg  -51.3969 -1.32197 -4.36771
RightLeg  121.468 -0.503119 1.44513
RightFoot  -48.8761 7.87943 23.9077
RightToes  -3.31784e-009 0 -3.6325e-017
Spine  41.3643 0.0512826 -2.23753
Spine1  -11.2026 -0.670167 -0.895082
HEad  -56.1417 25.2065 -26.956
LeftShoulder1  1.90539 -7.19041 -10.5671
LeftArm  -3.86777 -78.027 -57.5749
LeftForeArm  19.7739 7.22487 -15.9495
LeftHand  0.713667 9.1176 22.2891
RightShoulder  14.0025 43.5481 22.6
RightArm  -28.6911 38.8789 19.5471
RightForeArm  21.5682 -7.3519 8.93098
RightHand  -1.55053 -0.174774 -33.788
LeftUpLeg  -45.9409 -2.93115 4.15948
LeftLeg  111.011 5.97539 -14.4629
LeftFoot  -36.4018 -3.34511 -15.9541
LeftToes  1.0277e-010 -6.71454e-011 3.04227e-011
3323
root  -50.8535 19.0023 16.1407 70.8835 82.4962 24.785
RightUpLeg  -51.429 -1.38247 -4.10473
RightLeg  120.647 -0.545218 1.54644
RightFoot  -48.7024 7.8556 23.9522
RightToes  -3.31784e-009 0 -3.6325e-017
Spine  40.7485 0.219473 -2.21095
Spine1  -11.4735 -0.466752 -0.886265
HEad  -56.3485 25.5307 -27.4433
LeftShoulder1  1.905 -7.10262 -10.8057
LeftArm  1.27067 -77.7786 -60.7588
LeftForeArm  17.7702 6.72434 -16.5392
LeftHand  0.753746 9.2646 22.6078
RightShoulder  14.3859 43.238 23.6712
RightArm  -28.4826 38.2879 19.5727
RightForeArm  21.8009 -7.36142 8.99921
RightHand  -1.5323 -0.248426 -33.8643
LeftUpLeg  -45.9862 -3.07796 4.60529
LeftLeg  110.112 5.99799 -15.1343
LeftFoot  -36.5244 -3.43609 -16.2785
LeftToes  1.0277e-010 -6.71454e-011 3.04227e-011
3324
root  -50.5598 19.0191 16.149 70.2675 82.7303 23.4081
RightUpLeg  -51.4368 -1.31169 -3.90609
RightLeg  119.726 -0.789093 1.98511
RightFoot  -48.2318 7.33861 22.7647
RightToes  -3.31784e-009 0 -3.6325e-017
Spine  40.2456 0.393134 -2.17146
Spine1  -11.8357 -0.242065 -1.03706
HEad  -56.7426 25.5913 -27.9219
LeftShoulder1  1.9088 -6.9989 -10.9642
LeftArm  7.26043 -77.3829 -63.9522
LeftForeArm  15.358 5.96374 -17.2103
LeftHand  0.744541 9.2095 22.653
RightShoulder  14.7392 42.8987 24.7079
RightArm  -27.3227 37.4272 19.5475
RightForeArm  20.7281 -7.45572 9.54708
RightHand  -1.51483 -0.316699 -33.9249
LeftUpLeg  -45.908 -3.08029 4.81651
LeftLeg  109.31 5.75099 -15.1422
LeftFoot  -36.0288 -3.16399 -15.3754
LeftToes  1.0277e-010 -6.71454e-011 3.04227e-011
3325
root  -50.2628 19.0397 16.1676 70.1344 82.9235 22.4857
RightUpLeg  -51.3043 -1.24701 -3.81392
RightLeg  118.839 -0.785345 2.03798
RightFoot  -48.2794 7.79965 24.0681
RightToes  -3.31784e-009 0 -3.6325e-017
Spine  39.734 0.540404 -2.202
Spine1  -12.2071 -0.0706261 -1.25875
HEad  -56.9625 25.7876 -27.9932
LeftShoulder1  1.90996 -6.95513 -11.0609
LeftArm  12.8759 -77.1683 -67.2252
LeftForeArm  13.4648 5.23757 -17.704
LeftHand  0.800486 9.41267 23.0734
RightShoulder  15.187 42.6116 25.9242
RightArm  -26.6603 36.6557 19.4832
RightForeArm  20.4588 -7.50411 9.84065
RightHand  -1.48843 -0.438304 -34.1396
LeftUpLeg  -45.8928 -3.16496 5.08219
LeftLeg  108.416 5.56205 -15.3596
LeftFoot  -35.8821 -3.15245 -15.4128
LeftToes  1.0277e-010 -6.71454e-011 3.04227e-011
3326
root  -49.9704 19.0588 16.2028 69.5313 83.1672 21.1377
RightUpLeg  -51.2441 -1.05098 -3.65965
RightLeg  117.979 -0.8694 2.24389
RightFoot  -47.8628 7.86111 24.5245
RightToes  -3.31784e-009 0 -3.6325e-017
Spine  39.1585 0.877902 -2.35368
Spine1  -12.3834 0.227352 -1.15355
HEad  -57.092 25.8183 -28.0814
LeftShoulder1  1.92395 -6.89736 -11.3227
LeftArm  19.3519 -77.1076 -70.9478
LeftForeArm  11.3918 4.34452 -18.1865
LeftHand  0.83271 9.50573 23.4223
RightShoulder  15.3957 42.1638 26.747
RightArm  -26.2453 36.1556 19.5018
RightForeArm  20.4664 -7.53429 10.0302
RightHand  -1.4626 -0.511546 -34.0556
LeftUpLeg  -45.8126 -3.12581 5.42324
LeftLeg  107.527 5.30606 -15.4099
LeftFoot  -35.7402 -3.15406 -15.5074
LeftToes  1.0277e-010 -6.71454e-011 3.04227e-011
3327
root  -49.7029 19.0655 16.2406 69.172 83.3535 20.1768
RightUpLeg  -51.0855 -0.769434 -3.79502
RightLeg  117.187 -1.49991 3.43338
RightFoot  -47.4431 7.55064 23.8946
RightToes  -3.31784e-009 0 -3.6325e-017
Spine  38.7014 1.04015 -2.39921
Spine1  -12.4899 0.41044 -1.43747
HEad  -57.2367 25.8073 -28.2352
LeftShoulder1  1.88512 -6.768 -11.1617
LeftArm  25.1238 -76.8076 -73.9922
LeftForeArm  8.60034 3.42525 -18.6179
LeftHand  0.866535 9.66865 23.4363
RightShoulder  15.6556 41.8271 27.6053
RightArm  -26.2382 35.7403 19.542
RightForeArm  20.5628 -7.53445 10.0345
RightHand  -1.41455 -0.668862 -34.0352
LeftUpLeg  -45.6131 -3.08666 5.66802
LeftLeg  106.678 5.10696 -15.5798
LeftFoot  -35.7294 -3.14235 -15.4608
LeftToes  1.0277e-010 -6.71454e-011 3.04227e-011
3328
root  -49.4144 19.1067 16.3207 67.3367 83.9664 18.1858
RightUpLeg  -50.3258 -0.376484 -3.26305
RightLeg  116.188 -1.74882 4.02789
RightFoot  -46.3942 7.34073 23.9732
RightToes  -3.31784e-009 0 -3.6325e-017
Spine  38.7501 1.25229 -2.22611
Spine1  -12.5019 0.674811 -1.36939
HEad  -57.4463 25.9219 -28.3931
LeftShoulder1  1.88409 -6.70615 -11.2739
LeftArm  32.3501 -76.7574 -76.9318
LeftForeArm  5.0248 2.05746 -19.0908
LeftHand  0.898408 9.78529 23.6305
RightShoulder  15.9211 41.5863 28.404
RightArm  -26.1793 35.3065 19.4493
RightForeArm  20.4323 -7.54364 10.0877
RightHand  -1.39606 -0.745897 -34.1414
LeftUpLeg  -44.9081 -3.04427 6.48483
LeftLeg  105.743 4.89851 -15.8087
LeftFoot  -35.6016 -3.06892 -15.2039
LeftToes  1.0277e-010 -6.71454e-011 3.04227e-011
3329
root  -49.149 19.1322 16.3949 65.0756 84.488 15.6602
RightUpLeg  -49.724 0.0916977 -2.94724
RightLeg  115.28 -2.09595 4.84306
RightFoot  -44.8173 7.08414 24.2821
RightToes  -3.31784e-009 0 -3.6325e-017
Spine  38.702 1.42059 -2.04568
Spine1  -12.5125 0.907244 -1.40849
HEad  -57.4481 26.0847 -28.4938
LeftShoulder1  1.86046 -6.58696 -11.2558
LeftArm  38.466 -76.6575 -79.8173
LeftForeArm  2.55677 0.939321 -19.3532
LeftHand  0.931537 9.87749 23.9644
RightShoulder  16.1573 41.325 29.1599
RightArm  -25.8735 34.8306 19.4239
RightForeArm  20.2854 -7.56637 10.2257
RightHand  -1.37943 -0.824253 -34.3045
LeftUpLeg  -44.3762 -2.96984 7.2636
LeftLeg  104.885 4.78091 -16.257
LeftFoot  -35.7265 -3.09484 -15.2462
LeftToes  1.0277e-010 -6.71454e-011 3.04227e-011
3330
root  -48.9041 19.1408 16.405 67.8998 84.773 17.8637
RightUpLeg  -49.605 0.0250822 -3.35406
RightLeg  114.515 -2.56468 5.92631
RightFoot  -42.3572 6.64816 24.6866
RightToes  -3.31784e-009 0 -3.6325e-017
Spine  38.0131 1.18011 -1.73848
Spine1  -12.1861 0.827463 -1.97517
HEad  -57.4499 26.3897 -28.5605
LeftShoulder1  1.83738 -6.4479 -11.2841
LeftArm  43.8059 -76.5097 -82.0993
LeftForeArm  -0.00321992 -0.124558 -19.5384
LeftHand  0.956654 9.95675 24.1625
RightShoulder  16.4618 41.0669 30.0732
RightArm  -25.7967 34.3237 19.2797
RightForeArm  20.3614 -7.56953 10.2481
RightHand  -1.37231 -0.858576 -34.3816
LeftUpLeg  -44.4554 -3.25975 7.27209
LeftLeg  104.212 4.44513 -15.8673
LeftFoot  -35.5102 -3.03124 -15.0866
LeftToes  1.0277e-010 -6.71454e-011 3.04227e-011
